<svg width="291" height="31" viewBox="0 0 291 31" fill="none" xmlns="http://www.w3.org/2000/svg">
<g filter="url(#filter0_f)">
<mask id="path-1-inside-1" fill="white">
<path d="M6.8125 26.5H4V5.17188H6.8125V26.5Z"/>
<path d="M11.9688 26.5V5.17188H17.9893C19.8447 5.17188 21.4854 5.58203 22.9111 6.40234C24.3369 7.22266 25.4355 8.38965 26.207 9.90332C26.9883 11.417 27.3838 13.1553 27.3936 15.1182V16.4805C27.3936 18.4922 27.0029 20.2549 26.2217 21.7686C25.4502 23.2822 24.3418 24.4443 22.8965 25.2549C21.4609 26.0654 19.7861 26.4805 17.8721 26.5H11.9688ZM14.7812 7.48633V24.2002H17.7402C19.9082 24.2002 21.5928 23.5264 22.7939 22.1787C24.0049 20.8311 24.6104 18.9121 24.6104 16.4219V15.1768C24.6104 12.7549 24.0391 10.875 22.8965 9.53711C21.7637 8.18945 20.1523 7.50586 18.0625 7.48633H14.7812Z"/>
<path d="M37.0762 16.583L34.4688 19.293V26.5H31.6562V5.17188H34.4688V15.7188L43.9463 5.17188H47.3447L38.9512 14.5908L48.0039 26.5H44.6348L37.0762 16.583Z"/>
<path d="M55.0645 19.7764L55.4746 22.5889L56.0752 20.0547L60.2939 5.17188H62.667L66.7832 20.0547L67.3691 22.6328L67.8232 19.7617L71.1338 5.17188H73.9609L68.79 26.5H66.2266L61.832 10.958L61.4951 9.33203L61.1582 10.958L56.6025 26.5H54.0391L48.8828 5.17188H51.6953L55.0645 19.7764Z"/>
<path d="M79.3809 12.5693C80.582 11.0947 82.1445 10.3574 84.0684 10.3574C87.418 10.3574 89.1074 12.2471 89.1367 16.0264V26.5H86.4268V16.0117C86.417 14.8691 86.1533 14.0244 85.6357 13.4775C85.1279 12.9307 84.332 12.6572 83.248 12.6572C82.3691 12.6572 81.5977 12.8916 80.9336 13.3604C80.2695 13.8291 79.752 14.4443 79.3809 15.2061V26.5H76.6709V4H79.3809V12.5693Z"/>
<path d="M102.979 26.5C102.823 26.1875 102.696 25.6309 102.599 24.8301C101.339 26.1387 99.835 26.793 98.0869 26.793C96.5244 26.793 95.2402 26.3535 94.2344 25.4746C93.2383 24.5859 92.7402 23.4629 92.7402 22.1055C92.7402 20.4551 93.3652 19.1758 94.6152 18.2676C95.875 17.3496 97.6426 16.8906 99.918 16.8906H102.555V15.6455C102.555 14.6982 102.271 13.9463 101.705 13.3896C101.139 12.8232 100.304 12.54 99.2002 12.54C98.2334 12.54 97.4229 12.7842 96.7686 13.2725C96.1143 13.7607 95.7871 14.3516 95.7871 15.0449H93.0625C93.0625 14.2539 93.3408 13.4922 93.8975 12.7598C94.4639 12.0176 95.2256 11.4316 96.1826 11.002C97.1494 10.5723 98.209 10.3574 99.3613 10.3574C101.188 10.3574 102.618 10.8164 103.653 11.7344C104.688 12.6426 105.226 13.8975 105.265 15.499V22.7939C105.265 24.249 105.45 25.4062 105.821 26.2656V26.5H102.979ZM98.4824 24.4346C99.332 24.4346 100.138 24.2148 100.899 23.7754C101.661 23.3359 102.213 22.7646 102.555 22.0615V18.8096H100.431C97.1104 18.8096 95.4502 19.7812 95.4502 21.7246C95.4502 22.5742 95.7334 23.2383 96.2998 23.7168C96.8662 24.1953 97.5938 24.4346 98.4824 24.4346Z"/>
<path d="M113.189 6.8125V10.6504H116.148V12.7451H113.189V22.5742C113.189 23.209 113.321 23.6875 113.585 24.0098C113.849 24.3223 114.298 24.4785 114.933 24.4785C115.245 24.4785 115.675 24.4199 116.222 24.3027V26.5C115.509 26.6953 114.815 26.793 114.142 26.793C112.931 26.793 112.018 26.4268 111.402 25.6943C110.787 24.9619 110.479 23.9219 110.479 22.5742V12.7451H107.594V10.6504H110.479V6.8125H113.189Z"/>
<path d="M119.752 26.5V5.17188H125.772C127.628 5.17188 129.269 5.58203 130.694 6.40234C132.12 7.22266 133.219 8.38965 133.99 9.90332C134.771 11.417 135.167 13.1553 135.177 15.1182V16.4805C135.177 18.4922 134.786 20.2549 134.005 21.7686C133.233 23.2822 132.125 24.4443 130.68 25.2549C129.244 26.0654 127.569 26.4805 125.655 26.5H119.752ZM122.564 7.48633V24.2002H125.523C127.691 24.2002 129.376 23.5264 130.577 22.1787C131.788 20.8311 132.394 18.9121 132.394 16.4219V15.1768C132.394 12.7549 131.822 10.875 130.68 9.53711C129.547 8.18945 127.936 7.50586 125.846 7.48633H122.564Z"/>
<path d="M138.297 18.4287C138.297 16.876 138.6 15.4795 139.205 14.2393C139.82 12.999 140.67 12.042 141.754 11.3682C142.848 10.6943 144.093 10.3574 145.489 10.3574C147.647 10.3574 149.391 11.1045 150.719 12.5986C152.057 14.0928 152.726 16.0801 152.726 18.5605V18.751C152.726 20.2939 152.428 21.6807 151.832 22.9111C151.246 24.1318 150.401 25.084 149.298 25.7676C148.204 26.4512 146.944 26.793 145.519 26.793C143.37 26.793 141.627 26.0459 140.289 24.5518C138.961 23.0576 138.297 21.0801 138.297 18.6191V18.4287ZM141.021 18.751C141.021 20.5088 141.427 21.9199 142.237 22.9844C143.058 24.0488 144.151 24.5811 145.519 24.5811C146.896 24.5811 147.989 24.0439 148.8 22.9697C149.61 21.8857 150.016 20.3721 150.016 18.4287C150.016 16.6904 149.601 15.2842 148.771 14.21C147.95 13.126 146.856 12.584 145.489 12.584C144.151 12.584 143.072 13.1162 142.252 14.1807C141.432 15.2451 141.021 16.7686 141.021 18.751Z"/>
<path d="M163.053 15.8799L168.619 5.17188H171.812L164.459 18.5459V26.5H161.646V18.5459L154.293 5.17188H157.516L163.053 15.8799Z"/>
<path d="M172.457 18.4287C172.457 16.876 172.76 15.4795 173.365 14.2393C173.98 12.999 174.83 12.042 175.914 11.3682C177.008 10.6943 178.253 10.3574 179.649 10.3574C181.808 10.3574 183.551 11.1045 184.879 12.5986C186.217 14.0928 186.886 16.0801 186.886 18.5605V18.751C186.886 20.2939 186.588 21.6807 185.992 22.9111C185.406 24.1318 184.562 25.084 183.458 25.7676C182.364 26.4512 181.104 26.793 179.679 26.793C177.53 26.793 175.787 26.0459 174.449 24.5518C173.121 23.0576 172.457 21.0801 172.457 18.6191V18.4287ZM175.182 18.751C175.182 20.5088 175.587 21.9199 176.397 22.9844C177.218 24.0488 178.312 24.5811 179.679 24.5811C181.056 24.5811 182.149 24.0439 182.96 22.9697C183.771 21.8857 184.176 20.3721 184.176 18.4287C184.176 16.6904 183.761 15.2842 182.931 14.21C182.11 13.126 181.017 12.584 179.649 12.584C178.312 12.584 177.232 13.1162 176.412 14.1807C175.592 15.2451 175.182 16.7686 175.182 18.751Z"/>
<path d="M200.069 24.9326C199.015 26.1729 197.467 26.793 195.426 26.793C193.736 26.793 192.447 26.3047 191.559 25.3281C190.68 24.3418 190.235 22.8867 190.226 20.9629V10.6504H192.936V20.8896C192.936 23.292 193.912 24.4932 195.865 24.4932C197.936 24.4932 199.312 23.7217 199.996 22.1787V10.6504H202.706V26.5H200.128L200.069 24.9326Z"/>
<path d="M211.861 19.7764L212.271 22.5889L212.872 20.0547L217.091 5.17188H219.464L223.58 20.0547L224.166 22.6328L224.62 19.7617L227.931 5.17188H230.758L225.587 26.5H223.023L218.629 10.958L218.292 9.33203L217.955 10.958L213.399 26.5H210.836L205.68 5.17188H208.492L211.861 19.7764Z"/>
<path d="M242.755 26.5C242.599 26.1875 242.472 25.6309 242.374 24.8301C241.114 26.1387 239.61 26.793 237.862 26.793C236.3 26.793 235.016 26.3535 234.01 25.4746C233.014 24.5859 232.516 23.4629 232.516 22.1055C232.516 20.4551 233.141 19.1758 234.391 18.2676C235.65 17.3496 237.418 16.8906 239.693 16.8906H242.33V15.6455C242.33 14.6982 242.047 13.9463 241.48 13.3896C240.914 12.8232 240.079 12.54 238.976 12.54C238.009 12.54 237.198 12.7842 236.544 13.2725C235.89 13.7607 235.562 14.3516 235.562 15.0449H232.838C232.838 14.2539 233.116 13.4922 233.673 12.7598C234.239 12.0176 235.001 11.4316 235.958 11.002C236.925 10.5723 237.984 10.3574 239.137 10.3574C240.963 10.3574 242.394 10.8164 243.429 11.7344C244.464 12.6426 245.001 13.8975 245.04 15.499V22.7939C245.04 24.249 245.226 25.4062 245.597 26.2656V26.5H242.755ZM238.258 24.4346C239.107 24.4346 239.913 24.2148 240.675 23.7754C241.437 23.3359 241.988 22.7646 242.33 22.0615V18.8096H240.206C236.886 18.8096 235.226 19.7812 235.226 21.7246C235.226 22.5742 235.509 23.2383 236.075 23.7168C236.642 24.1953 237.369 24.4346 238.258 24.4346Z"/>
<path d="M251.852 10.6504L251.939 12.6426C253.15 11.1191 254.732 10.3574 256.686 10.3574C260.035 10.3574 261.725 12.2471 261.754 16.0264V26.5H259.044V16.0117C259.034 14.8691 258.771 14.0244 258.253 13.4775C257.745 12.9307 256.949 12.6572 255.865 12.6572C254.986 12.6572 254.215 12.8916 253.551 13.3604C252.887 13.8291 252.369 14.4443 251.998 15.2061V26.5H249.288V10.6504H251.852Z"/>
<path d="M269.518 6.8125V10.6504H272.477V12.7451H269.518V22.5742C269.518 23.209 269.649 23.6875 269.913 24.0098C270.177 24.3223 270.626 24.4785 271.261 24.4785C271.573 24.4785 272.003 24.4199 272.55 24.3027V26.5C271.837 26.6953 271.144 26.793 270.47 26.793C269.259 26.793 268.346 26.4268 267.73 25.6943C267.115 24.9619 266.808 23.9219 266.808 22.5742V12.7451H263.922V10.6504H266.808V6.8125H269.518Z"/>
<path d="M278.834 20.4941C278.854 19.332 278.985 18.4141 279.229 17.7402C279.474 17.0664 279.972 16.3193 280.724 15.499L282.643 13.5215C283.463 12.5938 283.873 11.5977 283.873 10.5332C283.873 9.50781 283.604 8.70703 283.067 8.13086C282.53 7.54492 281.749 7.25195 280.724 7.25195C279.728 7.25195 278.927 7.51562 278.321 8.04297C277.716 8.57031 277.413 9.27832 277.413 10.167H274.703C274.723 8.58496 275.284 7.31055 276.388 6.34375C277.501 5.36719 278.946 4.87891 280.724 4.87891C282.569 4.87891 284.005 5.37695 285.03 6.37305C286.065 7.35938 286.583 8.7168 286.583 10.4453C286.583 12.1543 285.792 13.8389 284.21 15.499L282.613 17.0811C281.9 17.8721 281.544 19.0098 281.544 20.4941H278.834ZM278.717 25.1377C278.717 24.6982 278.849 24.332 279.112 24.0391C279.386 23.7363 279.786 23.585 280.313 23.585C280.841 23.585 281.241 23.7363 281.515 24.0391C281.788 24.332 281.925 24.6982 281.925 25.1377C281.925 25.5771 281.788 25.9434 281.515 26.2363C281.241 26.5195 280.841 26.6611 280.313 26.6611C279.786 26.6611 279.386 26.5195 279.112 26.2363C278.849 25.9434 278.717 25.5771 278.717 25.1377Z"/>
</mask>
<path d="M6.8125 26.5H4V5.17188H6.8125V26.5Z" fill="#010101"/>
<path d="M11.9688 26.5V5.17188H17.9893C19.8447 5.17188 21.4854 5.58203 22.9111 6.40234C24.3369 7.22266 25.4355 8.38965 26.207 9.90332C26.9883 11.417 27.3838 13.1553 27.3936 15.1182V16.4805C27.3936 18.4922 27.0029 20.2549 26.2217 21.7686C25.4502 23.2822 24.3418 24.4443 22.8965 25.2549C21.4609 26.0654 19.7861 26.4805 17.8721 26.5H11.9688ZM14.7812 7.48633V24.2002H17.7402C19.9082 24.2002 21.5928 23.5264 22.7939 22.1787C24.0049 20.8311 24.6104 18.9121 24.6104 16.4219V15.1768C24.6104 12.7549 24.0391 10.875 22.8965 9.53711C21.7637 8.18945 20.1523 7.50586 18.0625 7.48633H14.7812Z" fill="#010101"/>
<path d="M37.0762 16.583L34.4688 19.293V26.5H31.6562V5.17188H34.4688V15.7188L43.9463 5.17188H47.3447L38.9512 14.5908L48.0039 26.5H44.6348L37.0762 16.583Z" fill="#010101"/>
<path d="M55.0645 19.7764L55.4746 22.5889L56.0752 20.0547L60.2939 5.17188H62.667L66.7832 20.0547L67.3691 22.6328L67.8232 19.7617L71.1338 5.17188H73.9609L68.79 26.5H66.2266L61.832 10.958L61.4951 9.33203L61.1582 10.958L56.6025 26.5H54.0391L48.8828 5.17188H51.6953L55.0645 19.7764Z" fill="#010101"/>
<path d="M79.3809 12.5693C80.582 11.0947 82.1445 10.3574 84.0684 10.3574C87.418 10.3574 89.1074 12.2471 89.1367 16.0264V26.5H86.4268V16.0117C86.417 14.8691 86.1533 14.0244 85.6357 13.4775C85.1279 12.9307 84.332 12.6572 83.248 12.6572C82.3691 12.6572 81.5977 12.8916 80.9336 13.3604C80.2695 13.8291 79.752 14.4443 79.3809 15.2061V26.5H76.6709V4H79.3809V12.5693Z" fill="#010101"/>
<path d="M102.979 26.5C102.823 26.1875 102.696 25.6309 102.599 24.8301C101.339 26.1387 99.835 26.793 98.0869 26.793C96.5244 26.793 95.2402 26.3535 94.2344 25.4746C93.2383 24.5859 92.7402 23.4629 92.7402 22.1055C92.7402 20.4551 93.3652 19.1758 94.6152 18.2676C95.875 17.3496 97.6426 16.8906 99.918 16.8906H102.555V15.6455C102.555 14.6982 102.271 13.9463 101.705 13.3896C101.139 12.8232 100.304 12.54 99.2002 12.54C98.2334 12.54 97.4229 12.7842 96.7686 13.2725C96.1143 13.7607 95.7871 14.3516 95.7871 15.0449H93.0625C93.0625 14.2539 93.3408 13.4922 93.8975 12.7598C94.4639 12.0176 95.2256 11.4316 96.1826 11.002C97.1494 10.5723 98.209 10.3574 99.3613 10.3574C101.188 10.3574 102.618 10.8164 103.653 11.7344C104.688 12.6426 105.226 13.8975 105.265 15.499V22.7939C105.265 24.249 105.45 25.4062 105.821 26.2656V26.5H102.979ZM98.4824 24.4346C99.332 24.4346 100.138 24.2148 100.899 23.7754C101.661 23.3359 102.213 22.7646 102.555 22.0615V18.8096H100.431C97.1104 18.8096 95.4502 19.7812 95.4502 21.7246C95.4502 22.5742 95.7334 23.2383 96.2998 23.7168C96.8662 24.1953 97.5938 24.4346 98.4824 24.4346Z" fill="#010101"/>
<path d="M113.189 6.8125V10.6504H116.148V12.7451H113.189V22.5742C113.189 23.209 113.321 23.6875 113.585 24.0098C113.849 24.3223 114.298 24.4785 114.933 24.4785C115.245 24.4785 115.675 24.4199 116.222 24.3027V26.5C115.509 26.6953 114.815 26.793 114.142 26.793C112.931 26.793 112.018 26.4268 111.402 25.6943C110.787 24.9619 110.479 23.9219 110.479 22.5742V12.7451H107.594V10.6504H110.479V6.8125H113.189Z" fill="#010101"/>
<path d="M119.752 26.5V5.17188H125.772C127.628 5.17188 129.269 5.58203 130.694 6.40234C132.12 7.22266 133.219 8.38965 133.99 9.90332C134.771 11.417 135.167 13.1553 135.177 15.1182V16.4805C135.177 18.4922 134.786 20.2549 134.005 21.7686C133.233 23.2822 132.125 24.4443 130.68 25.2549C129.244 26.0654 127.569 26.4805 125.655 26.5H119.752ZM122.564 7.48633V24.2002H125.523C127.691 24.2002 129.376 23.5264 130.577 22.1787C131.788 20.8311 132.394 18.9121 132.394 16.4219V15.1768C132.394 12.7549 131.822 10.875 130.68 9.53711C129.547 8.18945 127.936 7.50586 125.846 7.48633H122.564Z" fill="#010101"/>
<path d="M138.297 18.4287C138.297 16.876 138.6 15.4795 139.205 14.2393C139.82 12.999 140.67 12.042 141.754 11.3682C142.848 10.6943 144.093 10.3574 145.489 10.3574C147.647 10.3574 149.391 11.1045 150.719 12.5986C152.057 14.0928 152.726 16.0801 152.726 18.5605V18.751C152.726 20.2939 152.428 21.6807 151.832 22.9111C151.246 24.1318 150.401 25.084 149.298 25.7676C148.204 26.4512 146.944 26.793 145.519 26.793C143.37 26.793 141.627 26.0459 140.289 24.5518C138.961 23.0576 138.297 21.0801 138.297 18.6191V18.4287ZM141.021 18.751C141.021 20.5088 141.427 21.9199 142.237 22.9844C143.058 24.0488 144.151 24.5811 145.519 24.5811C146.896 24.5811 147.989 24.0439 148.8 22.9697C149.61 21.8857 150.016 20.3721 150.016 18.4287C150.016 16.6904 149.601 15.2842 148.771 14.21C147.95 13.126 146.856 12.584 145.489 12.584C144.151 12.584 143.072 13.1162 142.252 14.1807C141.432 15.2451 141.021 16.7686 141.021 18.751Z" fill="#010101"/>
<path d="M163.053 15.8799L168.619 5.17188H171.812L164.459 18.5459V26.5H161.646V18.5459L154.293 5.17188H157.516L163.053 15.8799Z" fill="#010101"/>
<path d="M172.457 18.4287C172.457 16.876 172.76 15.4795 173.365 14.2393C173.98 12.999 174.83 12.042 175.914 11.3682C177.008 10.6943 178.253 10.3574 179.649 10.3574C181.808 10.3574 183.551 11.1045 184.879 12.5986C186.217 14.0928 186.886 16.0801 186.886 18.5605V18.751C186.886 20.2939 186.588 21.6807 185.992 22.9111C185.406 24.1318 184.562 25.084 183.458 25.7676C182.364 26.4512 181.104 26.793 179.679 26.793C177.53 26.793 175.787 26.0459 174.449 24.5518C173.121 23.0576 172.457 21.0801 172.457 18.6191V18.4287ZM175.182 18.751C175.182 20.5088 175.587 21.9199 176.397 22.9844C177.218 24.0488 178.312 24.5811 179.679 24.5811C181.056 24.5811 182.149 24.0439 182.96 22.9697C183.771 21.8857 184.176 20.3721 184.176 18.4287C184.176 16.6904 183.761 15.2842 182.931 14.21C182.11 13.126 181.017 12.584 179.649 12.584C178.312 12.584 177.232 13.1162 176.412 14.1807C175.592 15.2451 175.182 16.7686 175.182 18.751Z" fill="#010101"/>
<path d="M200.069 24.9326C199.015 26.1729 197.467 26.793 195.426 26.793C193.736 26.793 192.447 26.3047 191.559 25.3281C190.68 24.3418 190.235 22.8867 190.226 20.9629V10.6504H192.936V20.8896C192.936 23.292 193.912 24.4932 195.865 24.4932C197.936 24.4932 199.312 23.7217 199.996 22.1787V10.6504H202.706V26.5H200.128L200.069 24.9326Z" fill="#010101"/>
<path d="M211.861 19.7764L212.271 22.5889L212.872 20.0547L217.091 5.17188H219.464L223.58 20.0547L224.166 22.6328L224.62 19.7617L227.931 5.17188H230.758L225.587 26.5H223.023L218.629 10.958L218.292 9.33203L217.955 10.958L213.399 26.5H210.836L205.68 5.17188H208.492L211.861 19.7764Z" fill="#010101"/>
<path d="M242.755 26.5C242.599 26.1875 242.472 25.6309 242.374 24.8301C241.114 26.1387 239.61 26.793 237.862 26.793C236.3 26.793 235.016 26.3535 234.01 25.4746C233.014 24.5859 232.516 23.4629 232.516 22.1055C232.516 20.4551 233.141 19.1758 234.391 18.2676C235.65 17.3496 237.418 16.8906 239.693 16.8906H242.33V15.6455C242.33 14.6982 242.047 13.9463 241.48 13.3896C240.914 12.8232 240.079 12.54 238.976 12.54C238.009 12.54 237.198 12.7842 236.544 13.2725C235.89 13.7607 235.562 14.3516 235.562 15.0449H232.838C232.838 14.2539 233.116 13.4922 233.673 12.7598C234.239 12.0176 235.001 11.4316 235.958 11.002C236.925 10.5723 237.984 10.3574 239.137 10.3574C240.963 10.3574 242.394 10.8164 243.429 11.7344C244.464 12.6426 245.001 13.8975 245.04 15.499V22.7939C245.04 24.249 245.226 25.4062 245.597 26.2656V26.5H242.755ZM238.258 24.4346C239.107 24.4346 239.913 24.2148 240.675 23.7754C241.437 23.3359 241.988 22.7646 242.33 22.0615V18.8096H240.206C236.886 18.8096 235.226 19.7812 235.226 21.7246C235.226 22.5742 235.509 23.2383 236.075 23.7168C236.642 24.1953 237.369 24.4346 238.258 24.4346Z" fill="#010101"/>
<path d="M251.852 10.6504L251.939 12.6426C253.15 11.1191 254.732 10.3574 256.686 10.3574C260.035 10.3574 261.725 12.2471 261.754 16.0264V26.5H259.044V16.0117C259.034 14.8691 258.771 14.0244 258.253 13.4775C257.745 12.9307 256.949 12.6572 255.865 12.6572C254.986 12.6572 254.215 12.8916 253.551 13.3604C252.887 13.8291 252.369 14.4443 251.998 15.2061V26.5H249.288V10.6504H251.852Z" fill="#010101"/>
<path d="M269.518 6.8125V10.6504H272.477V12.7451H269.518V22.5742C269.518 23.209 269.649 23.6875 269.913 24.0098C270.177 24.3223 270.626 24.4785 271.261 24.4785C271.573 24.4785 272.003 24.4199 272.55 24.3027V26.5C271.837 26.6953 271.144 26.793 270.47 26.793C269.259 26.793 268.346 26.4268 267.73 25.6943C267.115 24.9619 266.808 23.9219 266.808 22.5742V12.7451H263.922V10.6504H266.808V6.8125H269.518Z" fill="#010101"/>
<path d="M278.834 20.4941C278.854 19.332 278.985 18.4141 279.229 17.7402C279.474 17.0664 279.972 16.3193 280.724 15.499L282.643 13.5215C283.463 12.5938 283.873 11.5977 283.873 10.5332C283.873 9.50781 283.604 8.70703 283.067 8.13086C282.53 7.54492 281.749 7.25195 280.724 7.25195C279.728 7.25195 278.927 7.51562 278.321 8.04297C277.716 8.57031 277.413 9.27832 277.413 10.167H274.703C274.723 8.58496 275.284 7.31055 276.388 6.34375C277.501 5.36719 278.946 4.87891 280.724 4.87891C282.569 4.87891 284.005 5.37695 285.03 6.37305C286.065 7.35938 286.583 8.7168 286.583 10.4453C286.583 12.1543 285.792 13.8389 284.21 15.499L282.613 17.0811C281.9 17.8721 281.544 19.0098 281.544 20.4941H278.834ZM278.717 25.1377C278.717 24.6982 278.849 24.332 279.112 24.0391C279.386 23.7363 279.786 23.585 280.313 23.585C280.841 23.585 281.241 23.7363 281.515 24.0391C281.788 24.332 281.925 24.6982 281.925 25.1377C281.925 25.5771 281.788 25.9434 281.515 26.2363C281.241 26.5195 280.841 26.6611 280.313 26.6611C279.786 26.6611 279.386 26.5195 279.112 26.2363C278.849 25.9434 278.717 25.5771 278.717 25.1377Z" fill="#010101"/>
<path d="M6.8125 26.5H4V5.17188H6.8125V26.5Z" stroke="black" stroke-width="2" mask="url(#path-1-inside-1)"/>
<path d="M11.9688 26.5V5.17188H17.9893C19.8447 5.17188 21.4854 5.58203 22.9111 6.40234C24.3369 7.22266 25.4355 8.38965 26.207 9.90332C26.9883 11.417 27.3838 13.1553 27.3936 15.1182V16.4805C27.3936 18.4922 27.0029 20.2549 26.2217 21.7686C25.4502 23.2822 24.3418 24.4443 22.8965 25.2549C21.4609 26.0654 19.7861 26.4805 17.8721 26.5H11.9688ZM14.7812 7.48633V24.2002H17.7402C19.9082 24.2002 21.5928 23.5264 22.7939 22.1787C24.0049 20.8311 24.6104 18.9121 24.6104 16.4219V15.1768C24.6104 12.7549 24.0391 10.875 22.8965 9.53711C21.7637 8.18945 20.1523 7.50586 18.0625 7.48633H14.7812Z" stroke="black" stroke-width="2" mask="url(#path-1-inside-1)"/>
<path d="M37.0762 16.583L34.4688 19.293V26.5H31.6562V5.17188H34.4688V15.7188L43.9463 5.17188H47.3447L38.9512 14.5908L48.0039 26.5H44.6348L37.0762 16.583Z" stroke="black" stroke-width="2" mask="url(#path-1-inside-1)"/>
<path d="M55.0645 19.7764L55.4746 22.5889L56.0752 20.0547L60.2939 5.17188H62.667L66.7832 20.0547L67.3691 22.6328L67.8232 19.7617L71.1338 5.17188H73.9609L68.79 26.5H66.2266L61.832 10.958L61.4951 9.33203L61.1582 10.958L56.6025 26.5H54.0391L48.8828 5.17188H51.6953L55.0645 19.7764Z" stroke="black" stroke-width="2" mask="url(#path-1-inside-1)"/>
<path d="M79.3809 12.5693C80.582 11.0947 82.1445 10.3574 84.0684 10.3574C87.418 10.3574 89.1074 12.2471 89.1367 16.0264V26.5H86.4268V16.0117C86.417 14.8691 86.1533 14.0244 85.6357 13.4775C85.1279 12.9307 84.332 12.6572 83.248 12.6572C82.3691 12.6572 81.5977 12.8916 80.9336 13.3604C80.2695 13.8291 79.752 14.4443 79.3809 15.2061V26.5H76.6709V4H79.3809V12.5693Z" stroke="black" stroke-width="2" mask="url(#path-1-inside-1)"/>
<path d="M102.979 26.5C102.823 26.1875 102.696 25.6309 102.599 24.8301C101.339 26.1387 99.835 26.793 98.0869 26.793C96.5244 26.793 95.2402 26.3535 94.2344 25.4746C93.2383 24.5859 92.7402 23.4629 92.7402 22.1055C92.7402 20.4551 93.3652 19.1758 94.6152 18.2676C95.875 17.3496 97.6426 16.8906 99.918 16.8906H102.555V15.6455C102.555 14.6982 102.271 13.9463 101.705 13.3896C101.139 12.8232 100.304 12.54 99.2002 12.54C98.2334 12.54 97.4229 12.7842 96.7686 13.2725C96.1143 13.7607 95.7871 14.3516 95.7871 15.0449H93.0625C93.0625 14.2539 93.3408 13.4922 93.8975 12.7598C94.4639 12.0176 95.2256 11.4316 96.1826 11.002C97.1494 10.5723 98.209 10.3574 99.3613 10.3574C101.188 10.3574 102.618 10.8164 103.653 11.7344C104.688 12.6426 105.226 13.8975 105.265 15.499V22.7939C105.265 24.249 105.45 25.4062 105.821 26.2656V26.5H102.979ZM98.4824 24.4346C99.332 24.4346 100.138 24.2148 100.899 23.7754C101.661 23.3359 102.213 22.7646 102.555 22.0615V18.8096H100.431C97.1104 18.8096 95.4502 19.7812 95.4502 21.7246C95.4502 22.5742 95.7334 23.2383 96.2998 23.7168C96.8662 24.1953 97.5938 24.4346 98.4824 24.4346Z" stroke="black" stroke-width="2" mask="url(#path-1-inside-1)"/>
<path d="M113.189 6.8125V10.6504H116.148V12.7451H113.189V22.5742C113.189 23.209 113.321 23.6875 113.585 24.0098C113.849 24.3223 114.298 24.4785 114.933 24.4785C115.245 24.4785 115.675 24.4199 116.222 24.3027V26.5C115.509 26.6953 114.815 26.793 114.142 26.793C112.931 26.793 112.018 26.4268 111.402 25.6943C110.787 24.9619 110.479 23.9219 110.479 22.5742V12.7451H107.594V10.6504H110.479V6.8125H113.189Z" stroke="black" stroke-width="2" mask="url(#path-1-inside-1)"/>
<path d="M119.752 26.5V5.17188H125.772C127.628 5.17188 129.269 5.58203 130.694 6.40234C132.12 7.22266 133.219 8.38965 133.99 9.90332C134.771 11.417 135.167 13.1553 135.177 15.1182V16.4805C135.177 18.4922 134.786 20.2549 134.005 21.7686C133.233 23.2822 132.125 24.4443 130.68 25.2549C129.244 26.0654 127.569 26.4805 125.655 26.5H119.752ZM122.564 7.48633V24.2002H125.523C127.691 24.2002 129.376 23.5264 130.577 22.1787C131.788 20.8311 132.394 18.9121 132.394 16.4219V15.1768C132.394 12.7549 131.822 10.875 130.68 9.53711C129.547 8.18945 127.936 7.50586 125.846 7.48633H122.564Z" stroke="black" stroke-width="2" mask="url(#path-1-inside-1)"/>
<path d="M138.297 18.4287C138.297 16.876 138.6 15.4795 139.205 14.2393C139.82 12.999 140.67 12.042 141.754 11.3682C142.848 10.6943 144.093 10.3574 145.489 10.3574C147.647 10.3574 149.391 11.1045 150.719 12.5986C152.057 14.0928 152.726 16.0801 152.726 18.5605V18.751C152.726 20.2939 152.428 21.6807 151.832 22.9111C151.246 24.1318 150.401 25.084 149.298 25.7676C148.204 26.4512 146.944 26.793 145.519 26.793C143.37 26.793 141.627 26.0459 140.289 24.5518C138.961 23.0576 138.297 21.0801 138.297 18.6191V18.4287ZM141.021 18.751C141.021 20.5088 141.427 21.9199 142.237 22.9844C143.058 24.0488 144.151 24.5811 145.519 24.5811C146.896 24.5811 147.989 24.0439 148.8 22.9697C149.61 21.8857 150.016 20.3721 150.016 18.4287C150.016 16.6904 149.601 15.2842 148.771 14.21C147.95 13.126 146.856 12.584 145.489 12.584C144.151 12.584 143.072 13.1162 142.252 14.1807C141.432 15.2451 141.021 16.7686 141.021 18.751Z" stroke="black" stroke-width="2" mask="url(#path-1-inside-1)"/>
<path d="M163.053 15.8799L168.619 5.17188H171.812L164.459 18.5459V26.5H161.646V18.5459L154.293 5.17188H157.516L163.053 15.8799Z" stroke="black" stroke-width="2" mask="url(#path-1-inside-1)"/>
<path d="M172.457 18.4287C172.457 16.876 172.76 15.4795 173.365 14.2393C173.98 12.999 174.83 12.042 175.914 11.3682C177.008 10.6943 178.253 10.3574 179.649 10.3574C181.808 10.3574 183.551 11.1045 184.879 12.5986C186.217 14.0928 186.886 16.0801 186.886 18.5605V18.751C186.886 20.2939 186.588 21.6807 185.992 22.9111C185.406 24.1318 184.562 25.084 183.458 25.7676C182.364 26.4512 181.104 26.793 179.679 26.793C177.53 26.793 175.787 26.0459 174.449 24.5518C173.121 23.0576 172.457 21.0801 172.457 18.6191V18.4287ZM175.182 18.751C175.182 20.5088 175.587 21.9199 176.397 22.9844C177.218 24.0488 178.312 24.5811 179.679 24.5811C181.056 24.5811 182.149 24.0439 182.96 22.9697C183.771 21.8857 184.176 20.3721 184.176 18.4287C184.176 16.6904 183.761 15.2842 182.931 14.21C182.11 13.126 181.017 12.584 179.649 12.584C178.312 12.584 177.232 13.1162 176.412 14.1807C175.592 15.2451 175.182 16.7686 175.182 18.751Z" stroke="black" stroke-width="2" mask="url(#path-1-inside-1)"/>
<path d="M200.069 24.9326C199.015 26.1729 197.467 26.793 195.426 26.793C193.736 26.793 192.447 26.3047 191.559 25.3281C190.68 24.3418 190.235 22.8867 190.226 20.9629V10.6504H192.936V20.8896C192.936 23.292 193.912 24.4932 195.865 24.4932C197.936 24.4932 199.312 23.7217 199.996 22.1787V10.6504H202.706V26.5H200.128L200.069 24.9326Z" stroke="black" stroke-width="2" mask="url(#path-1-inside-1)"/>
<path d="M211.861 19.7764L212.271 22.5889L212.872 20.0547L217.091 5.17188H219.464L223.58 20.0547L224.166 22.6328L224.62 19.7617L227.931 5.17188H230.758L225.587 26.5H223.023L218.629 10.958L218.292 9.33203L217.955 10.958L213.399 26.5H210.836L205.68 5.17188H208.492L211.861 19.7764Z" stroke="black" stroke-width="2" mask="url(#path-1-inside-1)"/>
<path d="M242.755 26.5C242.599 26.1875 242.472 25.6309 242.374 24.8301C241.114 26.1387 239.61 26.793 237.862 26.793C236.3 26.793 235.016 26.3535 234.01 25.4746C233.014 24.5859 232.516 23.4629 232.516 22.1055C232.516 20.4551 233.141 19.1758 234.391 18.2676C235.65 17.3496 237.418 16.8906 239.693 16.8906H242.33V15.6455C242.33 14.6982 242.047 13.9463 241.48 13.3896C240.914 12.8232 240.079 12.54 238.976 12.54C238.009 12.54 237.198 12.7842 236.544 13.2725C235.89 13.7607 235.562 14.3516 235.562 15.0449H232.838C232.838 14.2539 233.116 13.4922 233.673 12.7598C234.239 12.0176 235.001 11.4316 235.958 11.002C236.925 10.5723 237.984 10.3574 239.137 10.3574C240.963 10.3574 242.394 10.8164 243.429 11.7344C244.464 12.6426 245.001 13.8975 245.04 15.499V22.7939C245.04 24.249 245.226 25.4062 245.597 26.2656V26.5H242.755ZM238.258 24.4346C239.107 24.4346 239.913 24.2148 240.675 23.7754C241.437 23.3359 241.988 22.7646 242.33 22.0615V18.8096H240.206C236.886 18.8096 235.226 19.7812 235.226 21.7246C235.226 22.5742 235.509 23.2383 236.075 23.7168C236.642 24.1953 237.369 24.4346 238.258 24.4346Z" stroke="black" stroke-width="2" mask="url(#path-1-inside-1)"/>
<path d="M251.852 10.6504L251.939 12.6426C253.15 11.1191 254.732 10.3574 256.686 10.3574C260.035 10.3574 261.725 12.2471 261.754 16.0264V26.5H259.044V16.0117C259.034 14.8691 258.771 14.0244 258.253 13.4775C257.745 12.9307 256.949 12.6572 255.865 12.6572C254.986 12.6572 254.215 12.8916 253.551 13.3604C252.887 13.8291 252.369 14.4443 251.998 15.2061V26.5H249.288V10.6504H251.852Z" stroke="black" stroke-width="2" mask="url(#path-1-inside-1)"/>
<path d="M269.518 6.8125V10.6504H272.477V12.7451H269.518V22.5742C269.518 23.209 269.649 23.6875 269.913 24.0098C270.177 24.3223 270.626 24.4785 271.261 24.4785C271.573 24.4785 272.003 24.4199 272.55 24.3027V26.5C271.837 26.6953 271.144 26.793 270.47 26.793C269.259 26.793 268.346 26.4268 267.73 25.6943C267.115 24.9619 266.808 23.9219 266.808 22.5742V12.7451H263.922V10.6504H266.808V6.8125H269.518Z" stroke="black" stroke-width="2" mask="url(#path-1-inside-1)"/>
<path d="M278.834 20.4941C278.854 19.332 278.985 18.4141 279.229 17.7402C279.474 17.0664 279.972 16.3193 280.724 15.499L282.643 13.5215C283.463 12.5938 283.873 11.5977 283.873 10.5332C283.873 9.50781 283.604 8.70703 283.067 8.13086C282.53 7.54492 281.749 7.25195 280.724 7.25195C279.728 7.25195 278.927 7.51562 278.321 8.04297C277.716 8.57031 277.413 9.27832 277.413 10.167H274.703C274.723 8.58496 275.284 7.31055 276.388 6.34375C277.501 5.36719 278.946 4.87891 280.724 4.87891C282.569 4.87891 284.005 5.37695 285.03 6.37305C286.065 7.35938 286.583 8.7168 286.583 10.4453C286.583 12.1543 285.792 13.8389 284.21 15.499L282.613 17.0811C281.9 17.8721 281.544 19.0098 281.544 20.4941H278.834ZM278.717 25.1377C278.717 24.6982 278.849 24.332 279.112 24.0391C279.386 23.7363 279.786 23.585 280.313 23.585C280.841 23.585 281.241 23.7363 281.515 24.0391C281.788 24.332 281.925 24.6982 281.925 25.1377C281.925 25.5771 281.788 25.9434 281.515 26.2363C281.241 26.5195 280.841 26.6611 280.313 26.6611C279.786 26.6611 279.386 26.5195 279.112 26.2363C278.849 25.9434 278.717 25.5771 278.717 25.1377Z" stroke="black" stroke-width="2" mask="url(#path-1-inside-1)"/>
</g>
<defs>
<filter id="filter0_f" x="0" y="0" width="290.583" height="30.793" filterUnits="userSpaceOnUse" color-interpolation-filters="sRGB">
<feFlood flood-opacity="0" result="BackgroundImageFix"/>
<feBlend mode="normal" in="SourceGraphic" in2="BackgroundImageFix" result="shape"/>
<feGaussianBlur stdDeviation="2" result="effect1_foregroundBlur"/>
</filter>
</defs>
</svg>
